<?xml version="1.0" encoding="UTF-8" standalone="no"?>
<svg width="100mm" height="60mm" viewBox="0 0 354.33071 212.59843" xmlns="http://www.w3.org/2000/svg">
  <!-- Boiler main body -->
  <rect x="100" y="40" width="154" height="130" rx="20" fill="none" stroke="#000000" stroke-width="3"/>
  
  <!-- Top chimney/vent -->
  <rect x="150" y="15" width="54" height="30" rx="8" fill="none" stroke="#000000" stroke-width="2"/>
  <rect x="160" y="20" width="34" height="4" rx="2" fill="none" stroke="#000000" stroke-width="1"/>
  <rect x="160" y="28" width="34" height="4" rx="2" fill="none" stroke="#000000" stroke-width="1"/>
  <rect x="160" y="36" width="34" height="4" rx="2" fill="none" stroke="#000000" stroke-width="1"/>
  
  <!-- Control panel -->
  <rect x="120" y="70" width="80" height="60" rx="8" fill="none" stroke="#000000" stroke-width="2"/>
  
  <!-- Display/gauge -->
  <circle cx="160" cy="100" r="20" fill="none" stroke="#000000" stroke-width="2"/>
  <circle cx="160" cy="100" r="15" fill="none" stroke="#000000" stroke-width="1.5"/>
  <circle cx="160" cy="100" r="3" fill="#000000"/>
  
  <!-- Control knobs/buttons -->
  <circle cx="135" cy="140" r="6" fill="none" stroke="#000000" stroke-width="1.5"/>
  <circle cx="160" cy="140" r="6" fill="none" stroke="#000000" stroke-width="1.5"/>
  <circle cx="185" cy="140" r="6" fill="none" stroke="#000000" stroke-width="1.5"/>
  
  <!-- Burner chamber indicator -->
  <rect x="130" y="150" width="60" height="15" rx="7" fill="none" stroke="#000000" stroke-width="2"/>
  
  <!-- Base/mounting -->
  <rect x="110" y="175" width="134" height="10" rx="5" fill="none" stroke="#000000" stroke-width="2"/>
  
  <!-- Side connections/pipes -->
  <rect x="80" y="120" width="25" height="8" rx="4" fill="none" stroke="#000000" stroke-width="1.5"/>
  <rect x="249" y="120" width="25" height="8" rx="4" fill="none" stroke="#000000" stroke-width="1.5"/>
  
  <!-- Temperature/flame indicator -->
  <g transform="translate(220,90)">
    <path d="M 0 15 Q -5 10 -3 5 Q 0 0 3 5 Q 5 10 0 15 Z" fill="none" stroke="#000000" stroke-width="2"/>
    <path d="M 0 12 Q -3 8 -2 5 Q 0 3 2 5 Q 3 8 0 12 Z" fill="none" stroke="#000000" stroke-width="1.5"/>
  </g>
</svg>
  <g
     inkscape:label="Laag 1"
     inkscape:groupmode="layer"
     id="layer1"
     transform="translate(0,-839.76378)">
    <path
       id="rect825"
       style="fill:#999999;fill-rule:evenodd;stroke:#000000;stroke-width:13.00981712;stroke-linecap:round;stroke-linejoin:round"
       d="m 60.055652,866.90771 c -5.894485,0 -10.639949,4.74077 -10.639949,10.63682 l 0,134.41227 c 0,5.896 4.745464,10.642 10.639949,10.642 l 245.427588,0 c 5.89605,0 10.64203,-4.746 10.64203,-10.642 l 0,-134.41227 c 0,-5.89605 -4.74598,-10.63682 -10.64203,-10.63682 l -245.427588,0 z"
       inkscape:connector-curvature="0" />
    <path
       id="path852"
       style="fill:none;stroke:#000000;stroke-width:12.23394203;stroke-linecap:round;stroke-linejoin:round"
       d="m 98.726651,914.18613 72.990799,0"
       inkscape:connector-curvature="0" />
    <path
       inkscape:connector-curvature="0"
       d="m 200.24278,888.88865 84.24637,0 c 7.29591,0 13.17114,6.05738 13.17114,13.57705 l 0,83.42416 c 0,7.52488 -5.87523,13.58225 -13.17114,13.58225 l -84.24637,0 c -7.2959,0 -13.16801,-6.05737 -13.16801,-13.58225 l 0,-83.42416 c 0,-7.51967 5.87211,-13.57705 13.16801,-13.57705 z"
       style="fill:#ffffff;fill-rule:evenodd"
       id="rect874" />
    <path
       inkscape:connector-curvature="0"
       d="m 200.24278,888.88865 84.24637,0 c 7.29591,0 13.17114,6.05738 13.17114,13.57705 l 0,83.42416 c 0,7.52488 -5.87523,13.58225 -13.17114,13.58225 l -84.24637,0 c -7.2959,0 -13.16801,-6.05737 -13.16801,-13.58225 l 0,-83.42416 c 0,-7.51967 5.87211,-13.57705 13.16801,-13.57705 z"
       style="fill:#e6e6e6;stroke:#000000;stroke-width:9.75736237"
       id="path2857" />
    <path
       style="opacity:1;fill:#000000;fill-opacity:1;fill-rule:nonzero;stroke:none;stroke-width:1;stroke-linecap:round;stroke-linejoin:round;stroke-miterlimit:4;stroke-dasharray:none;stroke-dashoffset:0;stroke-opacity:1"
       d="m 210.21422,987.96021 c 6.12476,2.38241 14.16092,1.61717 19.41768,-1.87229 6.87964,-4.56669 13.30883,-10.70896 12.58578,-27.34948 a 9.6035898,9.6035898 0 0 0 4.31075,-1.08385 c 1.39707,5.44375 1.33236,10.94816 1.60695,16.45875 0.35221,7.06864 2.76101,13.07024 11.77821,14.80731 4.75939,0.91685 10.17519,0.0317 14.3304,-2.46365 10.1913,-6.12009 16.12842,-14.68835 17.4776,-24.6776 1.0394,-7.69568 -4.44625,-16.86081 -11.40052,-20.31654 -7.39536,-3.67491 -15.93016,-6.17168 -29.98204,2.77765 a 9.6035898,9.6035898 0 0 0 -3.08868,-3.19523 c 4.01558,-3.93097 8.81435,-6.62688 13.44878,-9.6196 5.94551,-3.83934 9.93857,-8.92621 6.93432,-17.60389 -1.58568,-4.58017 -5.06016,-8.82781 -9.29875,-11.17868 -10.39582,-5.76587 -20.78465,-6.62346 -30.11019,-2.79727 -7.18435,2.94769 -12.37881,12.28104 -11.89442,20.03147 0.5151,8.24193 2.62017,16.88153 17.39592,24.57608 a 9.6035898,9.6035898 0 0 0 -0.56441,1.16312 9.6035898,9.6035898 0 0 0 -0.65054,3.11174 c -5.41514,-1.51164 -10.15122,-4.32092 -15.06241,-6.83923 -6.29771,-3.22927 -12.69966,-4.14396 -18.71262,2.79663 -3.1737,3.66332 -5.11503,8.79615 -5.03165,13.64232 0.20453,11.88597 4.65626,21.31175 12.63263,27.47482 1.15216,0.89025 2.46382,1.60764 3.87721,2.15742 z m 29.17508,-31.96493 a 7.3671371,7.3671371 0 0 1 -4.1475,-9.55762 7.3671371,7.3671371 0 0 1 9.55755,-4.14753 7.3671371,7.3671371 0 0 1 4.1476,9.55758 7.3671371,7.3671371 0 0 1 -9.55765,4.14757 z m 0.94195,-2.38621 a 4.8017948,4.8017948 0 0 0 6.2295,-2.70331 4.8017948,4.8017948 0 0 0 -2.70331,-6.22949 4.8017948,4.8017948 0 0 0 -6.22944,2.70333 4.8017948,4.8017948 0 0 0 2.70325,6.22947 z"
       id="path4410"
       inkscape:connector-curvature="0"
       inkscape:transform-center-x="-0.68074486"
       inkscape:transform-center-y="-5.7160824" />
    <path
       id="path852-2"
       style="fill:none;stroke:#000000;stroke-width:12.25469589;stroke-linecap:round;stroke-linejoin:round"
       d="m 98.456918,945.01562 73.238652,0"
       inkscape:connector-curvature="0" />
    <path
       id="path852-2-1"
       style="fill:none;stroke:#000000;stroke-width:12.20258713;stroke-linecap:round;stroke-linejoin:round"
       d="m 99.12482,974.94363 72.61714,0"
       inkscape:connector-curvature="0" />
    <path
       style="opacity:1;fill:#ffffff;fill-opacity:1;fill-rule:nonzero;stroke:#000000;stroke-width:1.58200002;stroke-miterlimit:4;stroke-dasharray:none;stroke-dashoffset:0;stroke-opacity:1"
       d="m 77.421791,891.76446 c -4.078374,0 -7.361328,3.28295 -7.361328,7.36133 l 0,79.64257 a 16.428571,16.428571 0 0 0 -9.78125,15.00194 16.428571,16.428571 0 0 0 16.427734,16.4278 16.428571,16.428571 0 0 0 16.429688,-16.4278 16.428571,16.428571 0 0 0 -8.353516,-14.29686 l 0,-80.34765 c 0,-4.07838 -3.282954,-7.36133 -7.361328,-7.36133 z"
       id="path4835"
       inkscape:connector-curvature="0" />
    <path
       inkscape:connector-curvature="0"
       style="opacity:1;fill:#000000;fill-opacity:1;fill-rule:nonzero;stroke:#000000;stroke-width:1.22107637;stroke-miterlimit:4;stroke-dasharray:none;stroke-dashoffset:0;stroke-opacity:1"
       d="m 73.139103,923.04166 0.432344,58.42555 c -4.584073,2.02825 -9.328784,7.19159 -9.335432,12.20429 3.28e-4,7.0028 5.677089,12.6796 12.679848,12.6799 7.003348,5e-4 12.681028,-5.6765 12.681356,-12.6799 -0.0029,-4.5717 -3.984231,-9.85937 -7.96557,-12.10648 0.490164,-19.6812 -0.699902,-33.66379 -0.225821,-58.51012 -5.831026,0.044 -3.406532,-0.0422 -8.266725,-0.0132 z"
       id="path4835-1"
       sodipodi:nodetypes="cccccccc" />
  </g>
</svg>
