<?xml version="1.0" encoding="UTF-8" standalone="no"?>
<svg width="500" height="500" viewBox="0 0 500 500" xmlns="http://www.w3.org/2000/svg">
  <!-- Background with rounded corners -->
  <rect width="500" height="500" rx="100" fill="#000000"/>

  <!-- Heat pump unit body -->
  <rect x="125" y="140" width="250" height="220" rx="25" fill="#FFFFFF" stroke="#666666" stroke-width="6"/>
  
  <!-- Top venting grill -->
  <rect x="145" y="120" width="210" height="30" rx="15" fill="#333333"/>
  <rect x="155" y="128" width="190" height="4" rx="2" fill="#666666"/>
  <rect x="155" y="136" width="190" height="4" rx="2" fill="#666666"/>
  <rect x="155" y="144" width="190" height="4" rx="2" fill="#666666"/>

  <!-- Side air intake vents -->
  <g id="leftVents">
    <rect x="105" y="180" width="25" height="8" rx="4" fill="#333333"/>
    <rect x="105" y="200" width="25" height="8" rx="4" fill="#333333"/>
    <rect x="105" y="220" width="25" height="8" rx="4" fill="#333333"/>
    <rect x="105" y="240" width="25" height="8" rx="4" fill="#333333"/>
    <rect x="105" y="260" width="25" height="8" rx="4" fill="#333333"/>
  </g>
  
  <g id="rightVents">
    <rect x="370" y="180" width="25" height="8" rx="4" fill="#333333"/>
    <rect x="370" y="200" width="25" height="8" rx="4" fill="#333333"/>
    <rect x="370" y="220" width="25" height="8" rx="4" fill="#333333"/>
    <rect x="370" y="240" width="25" height="8" rx="4" fill="#333333"/>
    <rect x="370" y="260" width="25" height="8" rx="4" fill="#333333"/>
  </g>

  <!-- Control panel -->
  <rect x="160" y="180" width="180" height="120" rx="15" fill="#F5F5F5" stroke="#CCCCCC" stroke-width="2"/>
  
  <!-- Display screen -->
  <rect x="180" y="200" width="140" height="60" rx="8" fill="#000000"/>
  <text x="250" y="225" text-anchor="middle" fill="#FFFFFF" font-family="Arial, monospace" font-size="16" font-weight="bold">22.5°C</text>
  <text x="250" y="245" text-anchor="middle" fill="#AAAAAA" font-family="Arial, monospace" font-size="12">OPTIMIZING</text>

  <!-- Control buttons -->
  <circle cx="200" cy="280" r="12" fill="#333333"/>
  <text x="200" y="285" text-anchor="middle" fill="white" font-family="Arial" font-size="10" font-weight="bold">▲</text>
  
  <circle cx="250" cy="280" r="12" fill="#333333"/>
  <text x="250" y="285" text-anchor="middle" fill="white" font-family="Arial" font-size="8" font-weight="bold">M</text>
  
  <circle cx="300" cy="280" r="12" fill="#333333"/>
  <text x="300" y="285" text-anchor="middle" fill="white" font-family="Arial" font-size="10" font-weight="bold">▼</text>

  <!-- Heat/Cool indicators -->
  <g id="heatIndicator">
    <circle cx="180" cy="330" r="20" fill="#666666"/>
    <path d="M 175 335 Q 180 325 185 335 Q 190 325 195 335" stroke="white" stroke-width="2" fill="none"/>
    <path d="M 170 340 Q 175 330 180 340 Q 185 330 190 340" stroke="white" stroke-width="2" fill="none"/>
  </g>
  
  <g id="coolIndicator">
    <circle cx="320" cy="330" r="20" fill="#666666"/>
    <path d="M 315 325 L 320 335 L 325 325 M 320 335 L 320 340" stroke="white" stroke-width="2" fill="none"/>
    <circle cx="315" cy="320" r="2" fill="white"/>
    <circle cx="325" cy="320" r="2" fill="white"/>
  </g>

  <!-- Optimization symbol -->
  <g transform="translate(250,380)">
    <circle r="35" fill="#333333" opacity="0.9"/>
    <path d="M -15 -5 L 0 -15 L 15 -5 L 10 0 L 15 10 L 0 15 L -15 5 L -10 0 Z" fill="white"/>
  </g>

  <!-- Connection pipes -->
  <rect x="140" y="370" width="8" height="40" rx="4" fill="#666666"/>
  <rect x="352" y="370" width="8" height="40" rx="4" fill="#666666"/>
  
  <!-- Base -->
  <rect x="135" y="405" width="230" height="15" rx="7" fill="#333333"/>
</svg>
