<?xml version="1.0" encoding="UTF-8" standalone="no"?>
<svg width="100mm" height="60mm" viewBox="0 0 354.33071 212.59843" xmlns="http://www.w3.org/2000/svg">
  <!-- Heat pump main unit -->
  <rect x="50" y="50" width="250" height="120" rx="15" fill="none" stroke="#000000" stroke-width="3"/>
  
  <!-- Top ventilation grilles -->
  <rect x="70" y="30" width="210" height="25" rx="10" fill="none" stroke="#000000" stroke-width="2"/>
  <rect x="80" y="35" width="190" height="3" rx="1.5" fill="none" stroke="#000000" stroke-width="1"/>
  <rect x="80" y="42" width="190" height="3" rx="1.5" fill="none" stroke="#000000" stroke-width="1"/>
  <rect x="80" y="49" width="190" height="3" rx="1.5" fill="none" stroke="#000000" stroke-width="1"/>
  
  <!-- Side air intake vents -->
  <g id="leftVents">
    <rect x="25" y="70" width="30" height="6" rx="3" fill="none" stroke="#000000" stroke-width="1.5"/>
    <rect x="25" y="85" width="30" height="6" rx="3" fill="none" stroke="#000000" stroke-width="1.5"/>
    <rect x="25" y="100" width="30" height="6" rx="3" fill="none" stroke="#000000" stroke-width="1.5"/>
    <rect x="25" y="115" width="30" height="6" rx="3" fill="none" stroke="#000000" stroke-width="1.5"/>
    <rect x="25" y="130" width="30" height="6" rx="3" fill="none" stroke="#000000" stroke-width="1.5"/>
  </g>
  
  <g id="rightVents">
    <rect x="299" y="70" width="30" height="6" rx="3" fill="none" stroke="#000000" stroke-width="1.5"/>
    <rect x="299" y="85" width="30" height="6" rx="3" fill="none" stroke="#000000" stroke-width="1.5"/>
    <rect x="299" y="100" width="30" height="6" rx="3" fill="none" stroke="#000000" stroke-width="1.5"/>
    <rect x="299" y="115" width="30" height="6" rx="3" fill="none" stroke="#000000" stroke-width="1.5"/>
    <rect x="299" y="130" width="30" height="6" rx="3" fill="none" stroke="#000000" stroke-width="1.5"/>
  </g>
  
  <!-- Control panel -->
  <rect x="75" y="70" width="120" height="80" rx="8" fill="none" stroke="#000000" stroke-width="2"/>
  
  <!-- Display -->
  <rect x="90" y="85" width="90" height="35" rx="5" fill="none" stroke="#000000" stroke-width="2"/>
  
  <!-- Control buttons -->
  <circle cx="110" cy="135" r="8" fill="none" stroke="#000000" stroke-width="1.5"/>
  <circle cx="135" cy="135" r="8" fill="none" stroke="#000000" stroke-width="1.5"/>
  <circle cx="160" cy="135" r="8" fill="none" stroke="#000000" stroke-width="1.5"/>
  
  <!-- Temperature/optimization indicator -->
  <circle cx="250" cy="110" r="25" fill="none" stroke="#000000" stroke-width="2"/>
  <path d="M 240 110 L 250 100 L 260 110 L 255 115 L 260 125 L 250 120 L 240 125 L 245 115 Z" fill="none" stroke="#000000" stroke-width="2"/>
  
  <!-- Base/mounting -->
  <rect x="60" y="175" width="230" height="12" rx="6" fill="none" stroke="#000000" stroke-width="2"/>
  
  <!-- Connection pipes -->
  <rect x="80" y="170" width="6" height="20" rx="3" fill="none" stroke="#000000" stroke-width="1.5"/>
  <rect x="268" y="170" width="6" height="20" rx="3" fill="none" stroke="#000000" stroke-width="1.5"/>
</svg>
